<?xml version="1.0" encoding="UTF-8"?>
<svg id="Layer_1" xmlns="http://www.w3.org/2000/svg" version="1.1" viewBox="0 0 1000 1000">
  <!-- Generator: Adobe Illustrator 29.6.1, SVG Export Plug-In . SVG Version: 2.1.1 Build 9)  -->
  <defs>
    <style>
      .st0 {
        fill: #fff;
      }

      .st1 {
        fill: #ff6d00;
      }

      .st2 {
        display: none;
      }
    </style>
  </defs>
  <g class="st2">
    <path class="st0" d="M500,0h0C775.96,0,1000,224.04,1000,500h0c0,275.96-224.04,500-500,500h0C224.04,1000,0,775.96,0,500H0C0,224.04,224.04,0,500,0Z"/>
  </g>
  <g>
    <polygon class="st1" points="280.46 457.17 206.28 414.34 206.28 414.34 132.1 457.17 132.1 500 132.09 542.83 132.09 542.83 206.28 585.66 280.46 542.83 280.46 500 280.46 457.17 280.46 457.17"/>
    <path class="st1" d="M867.91,500c0,149.32-110.09,272.91-253.53,294.07-14.28,2.1-28.88,3.21-43.75,3.21h-296.98v-99.8c0-101.64,82.4-184.04,184.05-184.04,46.58,0,89.13,17.31,121.55,45.84.71.67,1.44,1.32,2.18,1.96.04.03.08.07.12.1,14.19,12.25,32.66,19.66,52.88,19.66,44.74,0,81-36.27,81-81s-36.26-81-81-81c-20.22,0-38.69,7.41-52.88,19.66-.04.03-.08.07-.12.1-.74.64-1.47,1.29-2.18,1.96-32.42,28.53-74.97,45.84-121.55,45.84-101.65,0-184.05-82.4-184.05-184.04v-99.8h296.98c1.09,0,2.18.01,3.27.02.46,0,.92.01,1.38.02.76,0,1.51.02,2.26.04,1.4.03,2.8.07,4.19.13.52.02,1.03.04,1.55.06.71.02,1.41.06,2.12.1.75.03,1.5.07,2.24.11,1.7.1,3.4.21,5.09.34.84.06,1.67.13,2.51.19.13.02.27.03.41.04.85.07,1.69.15,2.53.22,1.82.17,3.63.35,5.43.55.9.1,1.8.21,2.7.31,2.52.3,5.04.64,7.54,1.01.18.02.35.04.53.07,0,0,0,.01.01.01,64.57,9.52,122.39,39.8,166.45,83.85,53.8,53.8,87.07,128.12,87.07,210.21Z"/>
  </g>
</svg>